<?xml version="1.0" standalone="no"?>
<!DOCTYPE svg PUBLIC "-//W3C//DTD SVG 20010904//EN"
 "http://www.w3.org/TR/2001/REC-SVG-20010904/DTD/svg10.dtd">
<svg version="1.0" xmlns="http://www.w3.org/2000/svg"
 width="700.000000pt" height="700.000000pt" viewBox="0 0 700.000000 700.000000"
 preserveAspectRatio="xMidYMid meet">
<metadata>
Created by potrace 1.11, written by Peter Selinger 2001-2013
</metadata>
<g transform="translate(0.000000,700.000000) scale(0.100000,-0.100000)"
fill="#000000" stroke="none">
<path d="M3290 6707 c-3 -2 -51 -7 -108 -11 -56 -4 -108 -8 -115 -11 -6 -2
-37 -6 -67 -10 -70 -7 -235 -41 -328 -66 -40 -11 -81 -22 -90 -24 -22 -4 -264
-88 -317 -109 -551 -227 -1026 -597 -1385 -1081 -37 -49 -82 -115 -101 -145
-18 -30 -36 -57 -39 -60 -27 -23 -196 -354 -254 -500 -51 -127 -121 -345 -141
-438 -40 -185 -49 -231 -61 -322 -19 -139 -27 -276 -28 -440 -1 -715 238
-1410 677 -1972 97 -124 108 -136 257 -287 303 -308 609 -517 1030 -703 276
-123 685 -222 1008 -244 182 -13 487 -7 622 12 331 47 577 111 838 218 875
358 1551 1086 1846 1986 31 97 78 273 90 345 3 17 8 41 11 55 9 41 14 72 21
125 3 28 8 59 10 70 19 90 26 539 11 685 -15 150 -19 177 -47 325 -91 467
-273 886 -552 1274 -29 40 -60 81 -68 91 -206 249 -305 349 -542 546 -14 12
-74 56 -134 99 -305 216 -657 383 -1014 481 -136 38 -136 37 -260 60 -130 23
-146 25 -265 40 -60 7 -499 17 -505 11z m485 -150 c11 -3 47 -8 80 -11 33 -4
71 -9 85 -11 39 -8 61 -12 110 -20 25 -4 52 -9 60 -11 507 -111 992 -352 1370
-680 53 -46 269 -261 321 -320 97 -109 238 -307 333 -469 181 -306 318 -687
371 -1025 3 -19 10 -60 15 -90 18 -103 25 -225 25 -435 0 -187 -4 -272 -20
-383 -12 -93 -16 -118 -20 -132 -2 -8 -6 -33 -10 -55 -3 -22 -10 -56 -15 -75
-5 -19 -12 -48 -15 -65 -3 -16 -7 -34 -9 -40 -1 -5 -8 -30 -15 -55 -338 -1243
-1447 -2160 -2731 -2256 -160 -12 -575 -4 -600 11 -3 2 -31 6 -62 9 -128 14
-401 77 -553 130 -864 294 -1551 947 -1886 1793 -55 138 -118 344 -143 468
-35 170 -33 162 -51 305 -23 188 -23 590 0 711 2 9 6 40 10 70 42 351 201 803
397 1134 63 105 197 301 243 354 181 211 275 307 415 426 240 203 505 367 789
489 151 64 400 147 491 162 14 3 33 7 42 10 18 5 46 11 93 19 17 3 37 8 45 10
8 2 38 7 65 10 28 4 61 8 75 10 14 2 61 7 105 10 44 4 82 9 84 11 6 6 480 -3
506 -9z"/>
<path d="M4035 5515 c-161 -40 -329 -141 -435 -260 -25 -27 -48 -52 -51 -55
-13 -12 -97 -159 -118 -208 -37 -88 -61 -218 -57 -307 5 -97 21 -115 106 -115
255 0 522 182 654 446 65 131 88 216 92 350 4 110 3 122 -16 142 -24 26 -91
28 -175 7z m51 -192 c-24 -201 -142 -398 -309 -512 -54 -37 -143 -78 -184 -86
-16 -2 -40 -7 -56 -11 l-27 -6 6 54 c12 111 71 252 147 353 69 90 173 169 292
222 137 60 140 60 131 -14z"/>
<path d="M3905 4646 c-49 -13 -153 -47 -230 -77 -193 -72 -209 -73 -375 -11
-234 86 -284 99 -401 100 -84 0 -117 -3 -208 -22 -43 -10 -142 -46 -194 -73
-148 -74 -306 -221 -390 -361 -225 -374 -229 -916 -10 -1472 106 -268 308
-581 480 -740 212 -196 381 -211 711 -63 59 26 155 41 252 39 78 -2 111 -8
183 -34 48 -18 126 -46 175 -64 106 -38 237 -47 324 -22 170 49 330 206 530
519 73 114 199 389 213 462 7 42 -14 67 -98 113 -121 67 -241 188 -295 300
-52 105 -71 179 -78 295 -14 242 92 457 309 625 79 61 85 86 38 153 -89 128
-256 250 -416 305 -167 57 -368 68 -520 28z m355 -131 c144 -24 296 -103 395
-202 l46 -47 -80 -78 c-189 -185 -273 -389 -266 -643 7 -242 82 -415 251 -582
40 -40 103 -91 139 -114 74 -46 73 -38 23 -149 -74 -167 -153 -299 -278 -465
-200 -266 -344 -316 -613 -211 -164 64 -217 77 -334 82 -127 5 -206 -11 -358
-71 -148 -57 -185 -67 -261 -66 -139 1 -261 99 -448 360 -204 287 -328 579
-375 891 -40 262 -32 473 28 680 105 368 414 618 763 618 90 0 156 -16 322
-78 168 -63 243 -80 308 -68 27 5 115 34 196 64 81 31 181 64 222 74 89 21
216 23 320 5z"/>
</g>
</svg>
